<!-- Generated by IcoMoon.io -->
<svg version="1.1" xmlns="http://www.w3.org/2000/svg" width="32" height="32" viewBox="0 0 32 32">
<title>date</title>
<path fill="#feda9b" d="M7.875 12.394h3v1.895h-3z"></path>
<path fill="#ff5d5d" d="M21.692 15.51l-4.267 1.543c-1.38 0.499-2.3 1.81-2.3 3.278v11.044h13.676c1.422 0 2.574-1.152 2.574-2.574v-8.47c0-1.468-0.92-2.778-2.3-3.278l-4.267-1.543z"></path>
<path fill="#ffb954" d="M8.189 4c-1.173 0-2.123 0.95-2.123 2.123v2.962c0 1.827 1.481 3.309 3.309 3.309s3.309-1.481 3.309-3.309v-5.085z"></path>
<path fill="#ade5ff" d="M15.125 31.375h-11.926c-1.422 0-2.574-1.152-2.574-2.574v-9.32c0-1.581 0.99-2.992 2.477-3.53l4.595-1.662h3.356l4.535 1.64c1.613 0.583 2.898 1.832 3.528 3.427l1.464 3.71c0.344 0.872 1.099 1.516 2.014 1.719l4.216 0.934c0.695 0.154 1.19 0.77 1.19 1.483 0 0.895-0.77 1.596-1.661 1.512l-5.245-0.494c-1.484-0.14-2.828-0.936-3.664-2.17l-2.305-3.405z"></path>
<path fill="#4dbaf6" d="M27.382 18.556v-7.424c0-2.282-1.85-4.132-4.132-4.132s-4.132 1.85-4.132 4.132v7.424c0 2.282 1.85 4.132 4.132 4.132s4.132-1.85 4.132-4.132z"></path>
<path fill="#000" d="M29.288 16.465l-1.281-0.463v-4.87c0-2.623-2.134-4.757-4.757-4.757s-4.757 2.134-4.757 4.757v4.87l-0.901 0.326c-0.537-0.415-1.141-0.75-1.792-0.986l-4.3-1.555v-1.392c0-0 0-0.001 0-0.001 1.087-0.701 1.809-1.921 1.809-3.308v-5.085c0-0.345-0.28-0.625-0.625-0.625h-4.494c-1.515 0-2.748 1.233-2.748 2.748v2.962c0 1.387 0.722 2.607 1.809 3.308v1.393l-4.361 1.577c-1.728 0.625-2.889 2.28-2.889 4.118v9.32c0 1.764 1.435 3.199 3.199 3.199h25.602c1.764 0 3.199-1.435 3.199-3.199v-8.47c0-1.725-1.090-3.279-2.712-3.865zM19.743 11.132c0-1.934 1.573-3.507 3.507-3.507s3.507 1.573 3.507 3.507v7.424c0 1.934-1.573 3.507-3.507 3.507s-3.507-1.573-3.507-3.507zM6.691 6.123c0-0.826 0.672-1.498 1.498-1.498h3.869v4.46c0 1.48-1.204 2.684-2.684 2.684s-2.684-1.204-2.684-2.684zM9.375 13.019c0.301 0 0.593-0.035 0.875-0.099v0.744h-1.75v-0.744c0.282 0.064 0.574 0.099 0.875 0.099zM3.625 23.602c-0.345 0-0.625 0.28-0.625 0.625v6.513c-0.981-0.1-1.75-0.931-1.75-1.939v-9.32c0-1.313 0.83-2.496 2.065-2.942l4.492-1.624h3.137l4.432 1.603c1.444 0.522 2.595 1.641 3.159 3.069l1.464 3.711c0.421 1.067 1.341 1.852 2.46 2.1l4.217 0.934c0.412 0.091 0.7 0.45 0.7 0.872 0 0.255-0.104 0.489-0.292 0.661s-0.432 0.253-0.685 0.229l-5.245-0.494c-1.303-0.123-2.471-0.815-3.205-1.898l-2.304-3.403c-0.112-0.167-0.303-0.277-0.519-0.277-0.345 0-0.625 0.28-0.625 0.625v8.104h-10.25v-6.523c0-0.345-0.28-0.625-0.625-0.625zM15.75 24.684l1.163 1.717c0.276 0.408 0.6 0.772 0.962 1.088v3.261h-2.125zM19.125 28.313c0.592 0.285 1.237 0.466 1.91 0.53l5.245 0.494c0.378 0.035 0.755-0.031 1.094-0.186v1.599h-8.25zM30.75 28.801c0 1.075-0.874 1.949-1.949 1.949h-0.176v-3.547c0-1.013-0.691-1.874-1.68-2.093l-4.217-0.934c-0.713-0.158-1.299-0.658-1.568-1.338l-0.005-0.013c0.632 0.311 1.343 0.487 2.094 0.487 2.623 0 4.757-2.134 4.757-4.757v-1.225l0.856 0.31c1.129 0.408 1.888 1.489 1.888 2.69z"></path>
<path fill="#000" d="M23.25 9.95c0.652 0 1.182 0.53 1.182 1.182 0 0.345 0.28 0.625 0.625 0.625s0.625-0.28 0.625-0.625c0-1.341-1.091-2.432-2.432-2.432-0.345 0-0.625 0.28-0.625 0.625s0.28 0.625 0.625 0.625z"></path>
<path fill="#000" d="M4.067 21.41c-0.116-0.117-0.278-0.183-0.442-0.183s-0.326 0.066-0.442 0.183c-0.116 0.116-0.183 0.277-0.183 0.442s0.067 0.326 0.183 0.442 0.278 0.183 0.442 0.183 0.326-0.067 0.442-0.183c0.116-0.116 0.183-0.277 0.183-0.442s-0.067-0.325-0.183-0.442z"></path>
<path fill="#000" d="M28.286 2.438h0.563v0.563c0 0.345 0.28 0.625 0.625 0.625s0.625-0.28 0.625-0.625v-0.563h0.563c0.345 0 0.625-0.28 0.625-0.625s-0.28-0.625-0.625-0.625h-0.563v-0.563c0-0.345-0.28-0.625-0.625-0.625s-0.625 0.28-0.625 0.625v0.563h-0.563c-0.345 0-0.625 0.28-0.625 0.625s0.28 0.625 0.625 0.625z"></path>
<path fill="#000" d="M16.5 4.626h0.563v0.563c0 0.345 0.28 0.625 0.625 0.625s0.625-0.28 0.625-0.625v-0.563h0.563c0.345 0 0.625-0.28 0.625-0.625s-0.28-0.625-0.625-0.625h-0.563v-0.563c0-0.345-0.28-0.625-0.625-0.625s-0.625 0.28-0.625 0.625v0.563h-0.563c-0.345 0-0.625 0.28-0.625 0.625s0.28 0.625 0.625 0.625z"></path>
<path fill="#000" d="M25.057 13.102c-0.164 0-0.326 0.066-0.442 0.183s-0.183 0.277-0.183 0.442c0 0.165 0.067 0.326 0.183 0.442s0.278 0.183 0.442 0.183 0.326-0.067 0.442-0.183c0.116-0.117 0.183-0.277 0.183-0.442s-0.067-0.325-0.183-0.442c-0.116-0.117-0.278-0.183-0.442-0.183z"></path>
</svg>
