<!-- Generated by IcoMoon.io -->
<svg version="1.1" xmlns="http://www.w3.org/2000/svg" width="32" height="32" viewBox="0 0 32 32">
<title>love</title>
<path fill="#ff5d5d" d="M20.067 1.847c-2.268 0-4.313 0.993-5.757 2.584-1.445-1.591-3.49-2.584-5.757-2.584-4.377 0-7.926 3.699-7.926 8.261 0 7.691 13.683 15.194 13.683 15.194s13.683-7.503 13.683-15.194c0-4.563-3.548-8.261-7.926-8.261z"></path>
<path fill="#fe8f8d" d="M26.977 16.99c-1.276 0-2.427 0.559-3.239 1.454-0.813-0.895-1.963-1.454-3.239-1.454-2.463 0-4.459 2.081-4.459 4.648 0 4.328 7.699 8.549 7.699 8.549s7.699-4.221 7.699-8.549c0-2.567-1.997-4.648-4.459-4.648z"></path>
<path fill="#000" d="M6.937 19.31c-0.256-0.232-0.649-0.211-0.882 0.045s-0.212 0.654 0.044 0.886c0.12 0.109 0.271 0.163 0.421 0.163 0.17 0 0.34-0.069 0.464-0.205 0.233-0.256 0.214-0.652-0.042-0.885-0.001-0.001-0.004-0.003-0.005-0.004z"></path>
<path fill="#000" d="M26.977 16.364c-0.294 0-0.586 0.027-0.873 0.079 1.67-2.212 2.514-4.335 2.514-6.335 0-4.901-3.836-8.888-8.552-8.888-2.16 0-4.181 0.817-5.757 2.315-1.576-1.498-3.597-2.315-5.757-2.315-4.715 0-8.552 3.987-8.552 8.888 0 2.623 1.453 5.459 4.317 8.43 0.24 0.249 0.637 0.256 0.886 0.016s0.256-0.637 0.016-0.885c-2.632-2.729-3.966-5.273-3.966-7.56 0-4.21 3.274-7.635 7.299-7.635 2.021 0 3.901 0.845 5.294 2.379 0.119 0.131 0.287 0.205 0.464 0.205s0.345-0.075 0.464-0.205c1.393-1.534 3.273-2.379 5.294-2.379 4.025 0 7.299 3.425 7.299 7.635 0 2.23-1.268 4.702-3.767 7.351-0.883-0.703-1.977-1.095-3.1-1.095-2.804 0-5.085 2.366-5.085 5.275 0 0.679 0.166 1.351 0.448 2.003-0.69 0.438-1.236 0.76-1.551 0.942-0.802-0.462-3.091-1.832-5.525-3.736-0.272-0.213-0.666-0.165-0.879 0.107s-0.165 0.666 0.107 0.879c3.088 2.417 5.878 3.954 5.995 4.019 0.094 0.052 0.197 0.077 0.301 0.077s0.207-0.026 0.301-0.077c0.034-0.019 0.747-0.411 1.846-1.105 2.115 3.29 6.728 5.852 6.98 5.99 0.094 0.052 0.197 0.077 0.301 0.077s0.207-0.026 0.301-0.077c0.328-0.18 8.024-4.453 8.024-9.098 0-2.909-2.281-5.275-5.085-5.275zM27.202 27.042c-1.419 1.179-2.856 2.066-3.464 2.424-0.605-0.356-2.033-1.237-3.449-2.411-1.653-1.371-3.623-3.423-3.623-5.415 0-2.218 1.719-4.022 3.833-4.022 1.059 0 2.045 0.444 2.776 1.249 0.119 0.131 0.287 0.205 0.464 0.205s0.345-0.074 0.464-0.205c0.731-0.805 1.717-1.249 2.775-1.249 2.114 0 3.833 1.804 3.833 4.022 0 1.988-1.962 4.035-3.608 5.403z"></path>
<path fill="#000" d="M20.071 5.479c0.346 0 0.624-0.28 0.624-0.626s-0.283-0.626-0.628-0.626c-0.346 0-0.626 0.28-0.626 0.626s0.28 0.626 0.626 0.626z"></path>
<path fill="#000" d="M24.36 10.109c0 0.346 0.28 0.626 0.626 0.626s0.626-0.28 0.626-0.626c0-2.292-1.272-4.392-3.24-5.35-0.311-0.151-0.686-0.022-0.837 0.289s-0.022 0.686 0.289 0.837c1.54 0.749 2.536 2.407 2.536 4.223z"></path>
</svg>
