<svg aria-hidden="true" style="position: absolute; width: 0; height: 0; overflow: hidden;" version="1.1" xmlns="http://www.w3.org/2000/svg" xmlns:xlink="http://www.w3.org/1999/xlink">
<defs>
<symbol id="icon-date" viewBox="0 0 32 32">
<title>date</title>
<path fill="#feda9b" style="fill: var(--color1, #feda9b)" d="M7.875 12.394h3v1.895h-3z"></path>
<path fill="#ff5d5d" style="fill: var(--color2, #ff5d5d)" d="M21.692 15.51l-4.267 1.543c-1.38 0.499-2.3 1.81-2.3 3.278v11.044h13.676c1.422 0 2.574-1.152 2.574-2.574v-8.47c0-1.468-0.92-2.778-2.3-3.278l-4.267-1.543z"></path>
<path fill="#ffb954" style="fill: var(--color3, #ffb954)" d="M8.189 4c-1.173 0-2.123 0.95-2.123 2.123v2.962c0 1.827 1.481 3.309 3.309 3.309s3.309-1.481 3.309-3.309v-5.085z"></path>
<path fill="#ade5ff" style="fill: var(--color4, #ade5ff)" d="M15.125 31.375h-11.926c-1.422 0-2.574-1.152-2.574-2.574v-9.32c0-1.581 0.99-2.992 2.477-3.53l4.595-1.662h3.356l4.535 1.64c1.613 0.583 2.898 1.832 3.528 3.427l1.464 3.71c0.344 0.872 1.099 1.516 2.014 1.719l4.216 0.934c0.695 0.154 1.19 0.77 1.19 1.483 0 0.895-0.77 1.596-1.661 1.512l-5.245-0.494c-1.484-0.14-2.828-0.936-3.664-2.17l-2.305-3.405z"></path>
<path fill="#4dbaf6" style="fill: var(--color5, #4dbaf6)" d="M27.382 18.556v-7.424c0-2.282-1.85-4.132-4.132-4.132s-4.132 1.85-4.132 4.132v7.424c0 2.282 1.85 4.132 4.132 4.132s4.132-1.85 4.132-4.132z"></path>
<path fill="#000" style="fill: var(--color6, #000)" d="M29.288 16.465l-1.281-0.463v-4.87c0-2.623-2.134-4.757-4.757-4.757s-4.757 2.134-4.757 4.757v4.87l-0.901 0.326c-0.537-0.415-1.141-0.75-1.792-0.986l-4.3-1.555v-1.392c0-0 0-0.001 0-0.001 1.087-0.701 1.809-1.921 1.809-3.308v-5.085c0-0.345-0.28-0.625-0.625-0.625h-4.494c-1.515 0-2.748 1.233-2.748 2.748v2.962c0 1.387 0.722 2.607 1.809 3.308v1.393l-4.361 1.577c-1.728 0.625-2.889 2.28-2.889 4.118v9.32c0 1.764 1.435 3.199 3.199 3.199h25.602c1.764 0 3.199-1.435 3.199-3.199v-8.47c0-1.725-1.090-3.279-2.712-3.865zM19.743 11.132c0-1.934 1.573-3.507 3.507-3.507s3.507 1.573 3.507 3.507v7.424c0 1.934-1.573 3.507-3.507 3.507s-3.507-1.573-3.507-3.507zM6.691 6.123c0-0.826 0.672-1.498 1.498-1.498h3.869v4.46c0 1.48-1.204 2.684-2.684 2.684s-2.684-1.204-2.684-2.684zM9.375 13.019c0.301 0 0.593-0.035 0.875-0.099v0.744h-1.75v-0.744c0.282 0.064 0.574 0.099 0.875 0.099zM3.625 23.602c-0.345 0-0.625 0.28-0.625 0.625v6.513c-0.981-0.1-1.75-0.931-1.75-1.939v-9.32c0-1.313 0.83-2.496 2.065-2.942l4.492-1.624h3.137l4.432 1.603c1.444 0.522 2.595 1.641 3.159 3.069l1.464 3.711c0.421 1.067 1.341 1.852 2.46 2.1l4.217 0.934c0.412 0.091 0.7 0.45 0.7 0.872 0 0.255-0.104 0.489-0.292 0.661s-0.432 0.253-0.685 0.229l-5.245-0.494c-1.303-0.123-2.471-0.815-3.205-1.898l-2.304-3.403c-0.112-0.167-0.303-0.277-0.519-0.277-0.345 0-0.625 0.28-0.625 0.625v8.104h-10.25v-6.523c0-0.345-0.28-0.625-0.625-0.625zM15.75 24.684l1.163 1.717c0.276 0.408 0.6 0.772 0.962 1.088v3.261h-2.125zM19.125 28.313c0.592 0.285 1.237 0.466 1.91 0.53l5.245 0.494c0.378 0.035 0.755-0.031 1.094-0.186v1.599h-8.25zM30.75 28.801c0 1.075-0.874 1.949-1.949 1.949h-0.176v-3.547c0-1.013-0.691-1.874-1.68-2.093l-4.217-0.934c-0.713-0.158-1.299-0.658-1.568-1.338l-0.005-0.013c0.632 0.311 1.343 0.487 2.094 0.487 2.623 0 4.757-2.134 4.757-4.757v-1.225l0.856 0.31c1.129 0.408 1.888 1.489 1.888 2.69z"></path>
<path fill="#000" style="fill: var(--color6, #000)" d="M23.25 9.95c0.652 0 1.182 0.53 1.182 1.182 0 0.345 0.28 0.625 0.625 0.625s0.625-0.28 0.625-0.625c0-1.341-1.091-2.432-2.432-2.432-0.345 0-0.625 0.28-0.625 0.625s0.28 0.625 0.625 0.625z"></path>
<path fill="#000" style="fill: var(--color6, #000)" d="M4.067 21.41c-0.116-0.117-0.278-0.183-0.442-0.183s-0.326 0.066-0.442 0.183c-0.116 0.116-0.183 0.277-0.183 0.442s0.067 0.326 0.183 0.442 0.278 0.183 0.442 0.183 0.326-0.067 0.442-0.183c0.116-0.116 0.183-0.277 0.183-0.442s-0.067-0.325-0.183-0.442z"></path>
<path fill="#000" style="fill: var(--color6, #000)" d="M28.286 2.438h0.563v0.563c0 0.345 0.28 0.625 0.625 0.625s0.625-0.28 0.625-0.625v-0.563h0.563c0.345 0 0.625-0.28 0.625-0.625s-0.28-0.625-0.625-0.625h-0.563v-0.563c0-0.345-0.28-0.625-0.625-0.625s-0.625 0.28-0.625 0.625v0.563h-0.563c-0.345 0-0.625 0.28-0.625 0.625s0.28 0.625 0.625 0.625z"></path>
<path fill="#000" style="fill: var(--color6, #000)" d="M16.5 4.626h0.563v0.563c0 0.345 0.28 0.625 0.625 0.625s0.625-0.28 0.625-0.625v-0.563h0.563c0.345 0 0.625-0.28 0.625-0.625s-0.28-0.625-0.625-0.625h-0.563v-0.563c0-0.345-0.28-0.625-0.625-0.625s-0.625 0.28-0.625 0.625v0.563h-0.563c-0.345 0-0.625 0.28-0.625 0.625s0.28 0.625 0.625 0.625z"></path>
<path fill="#000" style="fill: var(--color6, #000)" d="M25.057 13.102c-0.164 0-0.326 0.066-0.442 0.183s-0.183 0.277-0.183 0.442c0 0.165 0.067 0.326 0.183 0.442s0.278 0.183 0.442 0.183 0.326-0.067 0.442-0.183c0.116-0.117 0.183-0.277 0.183-0.442s-0.067-0.325-0.183-0.442c-0.116-0.117-0.278-0.183-0.442-0.183z"></path>
</symbol>
<symbol id="icon-love" viewBox="0 0 32 32">
<title>love</title>
<path fill="#ff5d5d" style="fill: var(--color2, #ff5d5d)" d="M20.067 1.847c-2.268 0-4.313 0.993-5.757 2.584-1.445-1.591-3.49-2.584-5.757-2.584-4.377 0-7.926 3.699-7.926 8.261 0 7.691 13.683 15.194 13.683 15.194s13.683-7.503 13.683-15.194c0-4.563-3.548-8.261-7.926-8.261z"></path>
<path fill="#fe8f8d" style="fill: var(--color7, #fe8f8d)" d="M26.977 16.99c-1.276 0-2.427 0.559-3.239 1.454-0.813-0.895-1.963-1.454-3.239-1.454-2.463 0-4.459 2.081-4.459 4.648 0 4.328 7.699 8.549 7.699 8.549s7.699-4.221 7.699-8.549c0-2.567-1.997-4.648-4.459-4.648z"></path>
<path fill="#000" style="fill: var(--color6, #000)" d="M6.937 19.31c-0.256-0.232-0.649-0.211-0.882 0.045s-0.212 0.654 0.044 0.886c0.12 0.109 0.271 0.163 0.421 0.163 0.17 0 0.34-0.069 0.464-0.205 0.233-0.256 0.214-0.652-0.042-0.885-0.001-0.001-0.004-0.003-0.005-0.004z"></path>
<path fill="#000" style="fill: var(--color6, #000)" d="M26.977 16.364c-0.294 0-0.586 0.027-0.873 0.079 1.67-2.212 2.514-4.335 2.514-6.335 0-4.901-3.836-8.888-8.552-8.888-2.16 0-4.181 0.817-5.757 2.315-1.576-1.498-3.597-2.315-5.757-2.315-4.715 0-8.552 3.987-8.552 8.888 0 2.623 1.453 5.459 4.317 8.43 0.24 0.249 0.637 0.256 0.886 0.016s0.256-0.637 0.016-0.885c-2.632-2.729-3.966-5.273-3.966-7.56 0-4.21 3.274-7.635 7.299-7.635 2.021 0 3.901 0.845 5.294 2.379 0.119 0.131 0.287 0.205 0.464 0.205s0.345-0.075 0.464-0.205c1.393-1.534 3.273-2.379 5.294-2.379 4.025 0 7.299 3.425 7.299 7.635 0 2.23-1.268 4.702-3.767 7.351-0.883-0.703-1.977-1.095-3.1-1.095-2.804 0-5.085 2.366-5.085 5.275 0 0.679 0.166 1.351 0.448 2.003-0.69 0.438-1.236 0.76-1.551 0.942-0.802-0.462-3.091-1.832-5.525-3.736-0.272-0.213-0.666-0.165-0.879 0.107s-0.165 0.666 0.107 0.879c3.088 2.417 5.878 3.954 5.995 4.019 0.094 0.052 0.197 0.077 0.301 0.077s0.207-0.026 0.301-0.077c0.034-0.019 0.747-0.411 1.846-1.105 2.115 3.29 6.728 5.852 6.98 5.99 0.094 0.052 0.197 0.077 0.301 0.077s0.207-0.026 0.301-0.077c0.328-0.18 8.024-4.453 8.024-9.098 0-2.909-2.281-5.275-5.085-5.275zM27.202 27.042c-1.419 1.179-2.856 2.066-3.464 2.424-0.605-0.356-2.033-1.237-3.449-2.411-1.653-1.371-3.623-3.423-3.623-5.415 0-2.218 1.719-4.022 3.833-4.022 1.059 0 2.045 0.444 2.776 1.249 0.119 0.131 0.287 0.205 0.464 0.205s0.345-0.074 0.464-0.205c0.731-0.805 1.717-1.249 2.775-1.249 2.114 0 3.833 1.804 3.833 4.022 0 1.988-1.962 4.035-3.608 5.403z"></path>
<path fill="#000" style="fill: var(--color6, #000)" d="M20.071 5.479c0.346 0 0.624-0.28 0.624-0.626s-0.283-0.626-0.628-0.626c-0.346 0-0.626 0.28-0.626 0.626s0.28 0.626 0.626 0.626z"></path>
<path fill="#000" style="fill: var(--color6, #000)" d="M24.36 10.109c0 0.346 0.28 0.626 0.626 0.626s0.626-0.28 0.626-0.626c0-2.292-1.272-4.392-3.24-5.35-0.311-0.151-0.686-0.022-0.837 0.289s-0.022 0.686 0.289 0.837c1.54 0.749 2.536 2.407 2.536 4.223z"></path>
</symbol>
<symbol id="icon-quill" viewBox="0 0 32 32">
<title>quill</title>
<path d="M0 32c4-12 14.469-32 32-32-8.219 6.594-12 22-18 22s-6 0-6 0l-6 10h-2z"></path>
</symbol>
<symbol id="icon-blog" viewBox="0 0 32 32">
<title>blog</title>
<path d="M12 0v3c2.296 0 4.522 0.449 6.616 1.335 2.024 0.856 3.842 2.082 5.405 3.644s2.788 3.381 3.645 5.405c0.886 2.094 1.335 4.32 1.335 6.616h3c0-11.046-8.954-20-20-20z"></path>
<path d="M12 6v3c2.938 0 5.701 1.144 7.778 3.222s3.222 4.84 3.222 7.778h3c0-7.732-6.268-14-14-14z"></path>
<path d="M15 12l-2 2-7 2-6 13 0.793 0.793 7.275-7.275c-0.044-0.165-0.068-0.339-0.068-0.518 0-1.105 0.895-2 2-2s2 0.895 2 2-0.895 2-2 2c-0.179 0-0.353-0.024-0.518-0.068l-7.275 7.275 0.793 0.793 13-6 2-7 2-2-5-5z"></path>
</symbol>
<symbol id="icon-droplet" viewBox="0 0 32 32">
<title>droplet</title>
<path d="M27.020 14.786c-2.055-5.732-6.41-10.88-11.020-14.786-4.61 3.907-8.965 9.054-11.020 14.786-1.271 3.545-1.396 7.393 0.393 10.794 2.058 3.911 6.207 6.42 10.626 6.42s8.569-2.509 10.626-6.42c1.79-3.401 1.664-7.249 0.393-10.794zM23.086 23.717c-1.369 2.602-4.15 4.283-7.086 4.283-1.723 0-3.391-0.579-4.753-1.583 0.414 0.054 0.832 0.083 1.254 0.083 3.67 0 7.146-2.1 8.856-5.351 1.402-2.665 1.281-5.433 0.746-7.636 0.455 0.88 0.841 1.756 1.151 2.623 0.706 1.971 1.251 4.886-0.168 7.581z"></path>
</symbol>
<symbol id="icon-paint-format" viewBox="0 0 32 32">
<title>paint-format</title>
<path d="M32 18v-12h-6v-2c0-1.1-0.9-2-2-2h-22c-1.1 0-2 0.9-2 2v6c0 1.1 0.9 2 2 2h22c1.1 0 2-0.9 2-2v-2h4v8h-18v4h-1c-0.552 0-1 0.448-1 1v10c0 0.552 0.448 1 1 1h4c0.552 0 1-0.448 1-1v-10c0-0.552-0.448-1-1-1h-1v-2h18zM24 6h-22v-2h22v2z"></path>
</symbol>
<symbol id="icon-image" viewBox="0 0 32 32">
<title>image</title>
<path d="M29.996 4c0.001 0.001 0.003 0.002 0.004 0.004v23.993c-0.001 0.001-0.002 0.003-0.004 0.004h-27.993c-0.001-0.001-0.003-0.002-0.004-0.004v-23.993c0.001-0.001 0.002-0.003 0.004-0.004h27.993zM30 2h-28c-1.1 0-2 0.9-2 2v24c0 1.1 0.9 2 2 2h28c1.1 0 2-0.9 2-2v-24c0-1.1-0.9-2-2-2v0z"></path>
<path d="M26 9c0 1.657-1.343 3-3 3s-3-1.343-3-3 1.343-3 3-3 3 1.343 3 3z"></path>
<path d="M28 26h-24v-4l7-12 8 10h2l7-6z"></path>
</symbol>
<symbol id="icon-pacman" viewBox="0 0 32 32">
<title>pacman</title>
<path d="M30.148 5.588c-2.934-3.42-7.288-5.588-12.148-5.588-8.837 0-16 7.163-16 16s7.163 16 16 16c4.86 0 9.213-2.167 12.148-5.588l-10.148-10.412 10.148-10.412zM22 3.769c1.232 0 2.231 0.999 2.231 2.231s-0.999 2.231-2.231 2.231-2.231-0.999-2.231-2.231c0-1.232 0.999-2.231 2.231-2.231z"></path>
</symbol>
<symbol id="icon-spades" viewBox="0 0 32 32">
<title>spades</title>
<path d="M25.549 10.88c-6.049-4.496-8.133-8.094-9.549-10.88v0c-0 0-0-0-0-0v0c-1.415 2.785-3.5 6.384-9.549 10.88-10.314 7.665-0.606 18.365 7.93 12.476-0.556 3.654-2.454 6.318-4.381 7.465v1.179h12.001v-1.179c-1.928-1.147-3.825-3.811-4.382-7.465 8.535 5.889 18.244-4.811 7.93-12.476z"></path>
</symbol>
<symbol id="icon-clubs" viewBox="0 0 32 32">
<title>clubs</title>
<path d="M24.588 12.274c-1.845 0-3.503 0.769-4.683 2.022-0.5 0.531-1.368 1.16-2.306 1.713 0.441-1.683 1.834-3.803 2.801-4.733 1.239-1.193 2-2.87 2-4.734 0-3.59-2.859-6.503-6.4-6.541-3.541 0.038-6.4 2.951-6.4 6.541 0 1.865 0.761 3.542 2 4.734 0.967 0.93 2.36 3.050 2.801 4.733-0.939-0.553-1.806-1.182-2.306-1.713-1.18-1.253-2.838-2.022-4.683-2.022-3.575 0-6.471 2.927-6.471 6.541s2.897 6.542 6.471 6.542c1.845 0 3.503-0.792 4.683-2.045 0.525-0.558 1.451-1.254 2.447-1.832-0.094 4.615-2.298 8.005-4.541 9.341v1.179h12v-1.179c-2.244-1.335-4.448-4.726-4.541-9.341 0.995 0.578 1.922 1.274 2.447 1.832 1.18 1.253 2.838 2.045 4.683 2.045 3.575 0 6.471-2.928 6.471-6.542s-2.897-6.541-6.471-6.541z"></path>
</symbol>
</defs>
</svg>
